<svg width="96" height="96" xmlns="http://www.w3.org/2000/svg" xmlns:xlink="http://www.w3.org/1999/xlink" xml:space="preserve" overflow="hidden"><defs><clipPath id="clip0"><rect x="59" y="74" width="96" height="96"/></clipPath></defs><g clip-path="url(#clip0)" transform="translate(-59 -74)"><path d="M140 129.618C140.002 126.746 138.838 123.997 136.775 122 139.666 117.196 138.116 110.958 133.312 108.067 133.068 107.92 132.818 107.784 132.563 107.658 133.888 103.212 131.359 98.5337 126.913 97.2084 126.837 97.1859 126.761 97.1644 126.685 97.144 126.365 92.2657 122.151 88.5705 117.272 88.8906 112.615 89.1962 108.995 93.0656 109 97.733L109 146.89C109.001 150.559 111.977 153.533 115.646 153.532 118.548 153.531 121.114 151.647 121.983 148.878 127.233 150.03 132.423 146.707 133.574 141.457 133.725 140.769 133.801 140.066 133.8 139.361 133.8 139.332 133.8 139.303 133.8 139.273 137.577 137.544 139.999 133.772 140 129.618Z" fill="#7367F0"/><path d="M78.711 95.243C78.1804 95.2438 77.6715 95.0328 77.297 94.657L73.055 90.414C72.2605 89.6466 72.2385 88.3805 73.0058 87.586 73.7732 86.7915 75.0393 86.7695 75.8338 87.5368 75.8505 87.5529 75.8669 87.5693 75.883 87.586L80.125 91.829C80.9059 92.6102 80.9057 93.8765 80.1246 94.6574 79.7496 95.0323 79.2412 95.2429 78.711 95.243Z" fill="#7367F0"/><path d="M71.809 108.667C71.5414 108.667 71.2764 108.613 71.03 108.509L64.759 105.857C63.7447 105.42 63.277 104.243 63.7143 103.229 64.1473 102.224 65.3067 101.754 66.317 102.173L72.589 104.825C73.6063 105.255 74.0822 106.429 73.6519 107.446 73.3387 108.186 72.6128 108.667 71.809 108.667Z" fill="#7367F0"/><path d="M68.538 123.533 63 123.533C61.8954 123.533 61 122.638 61 121.533 61 120.428 61.8954 119.533 63 119.533L68.538 119.533C69.6426 119.533 70.538 120.428 70.538 121.533 70.538 122.638 69.6426 123.533 68.538 123.533Z" fill="#7367F0"/><path d="M64.006 141.687C62.9014 141.689 62.0047 140.794 62.0032 139.69 62.0021 138.905 62.46 138.192 63.174 137.867L68.482 135.443C69.4866 134.984 70.6733 135.426 71.1325 136.43 71.5917 137.435 71.1496 138.622 70.145 139.081L64.836 141.506C64.5755 141.625 64.2924 141.687 64.006 141.687Z" fill="#7367F0"/><path d="M73.847 156.685C72.7424 156.685 71.8467 155.79 71.8464 154.686 71.8463 154.155 72.0573 153.645 72.433 153.27L76.676 149.028C77.486 148.277 78.7514 148.325 79.5024 149.135 80.2145 149.903 80.2134 151.09 79.5 151.857L75.261 156.1C74.8862 156.475 74.3774 156.686 73.847 156.685Z" fill="#7367F0"/><path d="M92.087 111.391C90.715 111.803 89.9371 113.25 90.3494 114.622 90.7618 115.994 92.2083 116.772 93.5803 116.359 94.9521 115.947 95.7301 114.501 95.318 113.129 94.9066 111.757 93.461 110.979 92.0893 111.39 92.0886 111.391 92.0878 111.391 92.087 111.391Z" fill="#7367F0"/><path d="M88.239 126.334C86.867 126.746 86.0891 128.193 86.5014 129.565 86.9138 130.937 88.3603 131.715 89.7323 131.302 91.1041 130.89 91.8821 129.444 91.47 128.072 91.0586 126.7 89.613 125.922 88.2413 126.333 88.2406 126.333 88.2398 126.334 88.239 126.334Z" fill="#7367F0"/><path d="M96.143 88.875C91.4827 88.877 87.6225 92.4928 87.316 97.143 82.8344 98.3419 80.1732 102.947 81.3721 107.428 81.3926 107.505 81.4143 107.582 81.437 107.658 76.408 110.134 74.3388 116.219 76.8153 121.248 76.9416 121.504 77.0786 121.755 77.226 122 73.0179 126.079 72.9135 132.798 76.9928 137.006 77.913 137.955 79.0024 138.724 80.205 139.273 80.205 139.303 80.205 139.332 80.205 139.361 80.1995 144.736 84.5527 149.098 89.928 149.104 90.6325 149.105 91.3349 149.029 92.023 148.878 93.1289 152.376 96.8613 154.315 100.359 153.21 103.117 152.338 104.994 149.782 105 146.89L105 97.733C105.001 92.8414 101.036 88.8756 96.144 88.875 96.1437 88.875 96.1433 88.875 96.143 88.875ZM95.87 131.545 95.05 133.073 93.35 133.022C93.0082 133.371 92.625 133.678 92.209 133.934L91.924 135.612 90.272 136.112 89.106 134.881C88.6192 134.891 88.133 134.843 87.658 134.736L86.258 135.708 84.741 134.892 84.78 133.192C84.4314 132.851 84.1255 132.469 83.869 132.054L82.19 131.762 81.69 130.11 82.935 128.955C82.9198 128.466 82.9641 127.977 83.067 127.499L82.092 126.1 82.912 124.575 84.62 124.624C84.9577 124.273 85.3368 123.964 85.749 123.705L86.034 122.027 87.686 121.527 88.854 122.768C89.3443 122.756 89.8343 122.803 90.313 122.91L91.704 121.93 93.229 122.751 93.178 124.451C93.5311 124.791 93.8408 125.174 94.1 125.59L95.778 125.874 96.278 127.526 95.033 128.7C95.0439 129.187 94.9952 129.673 94.888 130.148ZM99.7 116.6 98.88 118.125 97.18 118.074C96.8424 118.428 96.463 118.738 96.05 119L95.758 120.68 94.106 121.18 92.938 119.939C92.4509 119.95 91.9643 119.901 91.489 119.794L90.098 120.774 88.573 119.953 88.636 118.234C88.2848 117.896 87.9762 117.517 87.717 117.105L86.04 116.821 85.54 115.169 86.781 114C86.7701 113.513 86.8178 113.027 86.923 112.552L85.928 111.158 86.761 109.626 88.461 109.677C88.8018 109.328 89.1839 109.022 89.599 108.766L89.891 107.086 91.543 106.586 92.709 107.817C93.1958 107.807 93.682 107.855 94.157 107.962L95.549 106.986 97.074 107.806 97.022 109.515C97.3732 109.853 97.6818 110.232 97.941 110.644L99.619 110.928 100.119 112.581 98.878 113.749C98.886 114.243 98.833 114.735 98.72 115.216Z" fill="#7367F0"/></g></svg>